<svg viewBox="0 0 464 464" xmlns="http://www.w3.org/2000/svg"><path d="M128 96h336v304H128zm0 0" fill="#77bafc"/><path d="M168 400l296-288v288zm0 0" fill="#5aaae7"/><path d="M432 0H32C14.328 0 0 14.328 0 32v64h464V32c0-17.672-14.328-32-32-32zm-32 64H160c-8.836 0-16-7.164-16-16s7.164-16 16-16h240c8.836 0 16 7.164 16 16s-7.164 16-16 16zm0 0M0 400v32c0 17.672 14.328 32 32 32h400c17.672 0 32-14.328 32-32v-32zm0 0" fill="#ff9478"/><path d="M400 32H160c-8.836 0-16 7.164-16 16s7.164 16 16 16h240c8.836 0 16-7.164 16-16s-7.164-16-16-16zm0 0" fill="#e6e7e8"/><path d="M0 96h128v304H0zm0 0" fill="#ffc477"/><path d="M176 128h240c8.836 0 16 7.164 16 16v208c0 8.836-7.164 16-16 16H176c-8.836 0-16-7.164-16-16V144c0-8.836 7.164-16 16-16zm0 0" fill="#ffeb99"/><path d="M32 56a7.715 7.715 0 0 1-5.68-2.398A8.31 8.31 0 0 1 24 48a7.995 7.995 0 0 1 4.934-7.434 7.996 7.996 0 0 1 8.746 1.754A8.41 8.41 0 0 1 40 48a6.69 6.69 0 0 1-.64 3.04 8.052 8.052 0 0 1-1.68 2.562A7.715 7.715 0 0 1 32 56zm0 0" fill="#ffde55"/><path d="M64 56a7.715 7.715 0 0 1-5.68-2.398A8.31 8.31 0 0 1 56 48a8.41 8.41 0 0 1 2.32-5.68c.38-.343.782-.664 1.2-.96.445-.301.93-.544 1.44-.72.454-.23.938-.394 1.438-.48a8.152 8.152 0 0 1 7.282 2.16 8.262 8.262 0 0 1 1.68 2.64 7.518 7.518 0 0 1 0 6.08 8.052 8.052 0 0 1-1.68 2.562A7.715 7.715 0 0 1 64 56zm0 0" fill="#ff6243"/><path d="M96 56a7.715 7.715 0 0 1-5.68-2.398A7.611 7.611 0 0 1 88 48a8.41 8.41 0 0 1 2.32-5.68c.38-.343.782-.664 1.2-.96.445-.301.93-.544 1.44-.72.454-.23.938-.394 1.438-.48a8.152 8.152 0 0 1 7.282 2.16 8.262 8.262 0 0 1 1.68 2.64c.449.95.667 1.99.64 3.04a7.611 7.611 0 0 1-2.32 5.602A8.322 8.322 0 0 1 96 56zm0 0" fill="#00ccb3"/><g fill="#ff9478"><path d="M200 168h32v16h-32zm0 0M248 168h16v16h-16zm0 0M280 168h112v16H280zm0 0M200 216h96v16h-96zm0 0M312 216h32v16h-32zm0 0M360 216h32v16h-32zm0 0M200 312h96v16h-96zm0 0M312 312h32v16h-32zm0 0M360 312h32v16h-32zm0 0M200 264h64v16h-64zm0 0M280 264h64v16h-64zm0 0M360 264h32v16h-32zm0 0"/></g></svg>